<svg version="1.0" xmlns="http://www.w3.org/2000/svg" width="933.333" height="933.333" viewBox="0 0 700 700"><path d="M320.8.5c-.2.2-4.4.6-9.5.9-5.1.3-10.3.8-11.5 1.1-1.3.2-4.1.7-6.3.9-7.8.9-12.8 1.9-37 7.1-1.1.3-5.1 1.4-9 2.5-3.8 1.2-7.7 2.3-8.5 2.5-.8.2-4.9 1.5-9 3C145.2 48 75.9 108.9 35.9 189 16.7 227.6 5.2 268.1 1.2 312c-.9 9.7-.8 50.6.1 59 1.4 12.6 2.8 23.5 3.2 25 .5 1.7 1.4 7.1 2 11.5.9 6.1 6.5 27.4 10.5 39.4 6.9 20.8 17.3 44.5 26.6 60.7C47.9 515 59.3 533.4 60 534c.4.3 2.1 2.7 4 5.5 2.9 4.3 9.6 12.9 17.5 22.4 7.2 8.7 22.3 24.1 33.1 33.7 44.3 39.6 103.9 69.2 160.4 79.7 8.4 1.6 15.1 2.7 19.5 3.3 2.7.3 6.1.8 7.5 1 18.3 2.3 61.2 2.3 77.5-.1 1.7-.2 4.9-.6 7.3-.9 6.9-.9 24.9-4.1 28-5 .9-.3 2.9-.7 4.4-1 3.8-.6 23.6-6.3 31.5-9C551.3 629.1 630.8 549.1 664 449c5.7-17.1 11.7-41.1 13.4-53.5.3-2.2 1-7.2 1.5-11 3-20.8 3.3-68.9.6-81.9-.2-1.2-.7-4.8-1-8.1-.4-3.3-1.8-11.6-3.1-18.5-10.4-52.2-30.6-97.7-62.3-140-4.7-6.3-9.2-12.2-10.1-13.1-.8-.8-4.5-4.9-8.1-9-13-14.6-30.4-31-42.9-40.5-3.6-2.7-6.7-5.2-7-5.5-.3-.3-4.8-3.5-10-7.1-34.7-23.9-72.5-41-112-50.7-14.1-3.4-32.3-6.7-42-7.6-3.6-.4-7.6-.9-9-1.1-2.8-.6-50.7-1.4-51.2-.9z"/></svg>