<svg width="150" height="48" viewBox="0 0 150 48" xmlns="http://www.w3.org/2000/svg"><g fill="none" fill-rule="evenodd"><circle fill="#C01844" cx="82" cy="11" r="2"/><path d="M46.606 28.942l.036.109c.048 2.698-.768 4.76-2.448 6.188-1.68 1.427-3.893 2.14-6.64 2.14-2.878 0-5.184-1.063-6.919-3.188-1.734-2.126-2.601-4.917-2.601-8.374v-3.939c0-3.444.867-6.232 2.601-8.364 1.735-2.132 4.041-3.198 6.92-3.198 2.746 0 4.96.717 6.64 2.15 1.68 1.433 2.495 3.48 2.447 6.142l-.036.109h-.83c0-2.373-.739-4.204-2.214-5.492-1.476-1.29-3.478-1.933-6.007-1.933-2.566 0-4.631.97-6.197 2.908-1.566 1.94-2.349 4.487-2.349 7.642v3.975c0 3.192.783 5.754 2.35 7.687 1.565 1.933 3.63 2.9 6.196 2.9 2.53 0 4.531-.62 6.007-1.861 1.475-1.24 2.213-3.107 2.213-5.6h.831zm5.659-7.425c.614-1.397 1.505-2.484 2.674-3.26 1.168-.778 2.59-1.166 4.263-1.166 2.036 0 3.58.644 4.634 1.933 1.054 1.289 1.581 3.318 1.581 6.088V37h-.994V25.076c0-2.565-.472-4.375-1.418-5.429-.945-1.054-2.207-1.58-3.785-1.58-2.071 0-3.67.608-4.796 1.824-1.126 1.217-1.846 2.776-2.16 4.68V37h-.975V26.991h-.036v-.632c0-.169.012-.337.036-.506V8.816h.976v12.701zm26.67-3.36l-1.265-.109c-1.746 0-3.165.563-4.255 1.69-1.09 1.126-1.797 2.61-2.122 4.453V37h-.976V17.452h.795l.18 3.397v.668c.543-1.397 1.35-2.484 2.421-3.26 1.072-.778 2.391-1.166 3.957-1.166.277 0 .533.02.768.063.235.042.436.087.605.136l-.108.867zM82.678 37h-.975V17.452h.975V37zm17.167-4.788c0-1.035-.442-1.978-1.328-2.827-.885-.85-2.43-1.515-4.634-1.996-2.324-.494-4.007-1.13-5.05-1.906-1.041-.777-1.562-1.93-1.562-3.46 0-1.397.59-2.568 1.77-3.514 1.18-.945 2.77-1.418 4.77-1.418 2.156 0 3.854.506 5.095 1.517 1.24 1.012 1.83 2.331 1.77 3.957l-.036.108h-.83c0-1.276-.54-2.363-1.618-3.26-1.078-.898-2.538-1.347-4.381-1.347-1.83 0-3.216.395-4.155 1.184-.94.789-1.41 1.701-1.41 2.737 0 1.024.398 1.897 1.193 2.62.795.722 2.373 1.354 4.733 1.896 2.18.506 3.833 1.196 4.96 2.069 1.126.873 1.689 2.093 1.689 3.658 0 1.53-.626 2.77-1.88 3.722-1.252.952-2.914 1.427-4.985 1.427-2.277 0-4.062-.508-5.357-1.526s-1.9-2.255-1.816-3.713l.036-.108h.795c.097 1.541.759 2.655 1.988 3.342 1.228.687 2.68 1.03 4.354 1.03 1.806 0 3.24-.422 4.3-1.265 1.06-.843 1.59-1.819 1.59-2.927zm9.959.65l.921 2.638h.108l.94-2.637 6.016-15.41h1.048l-7.606 19.529.018.018h-.94l-7.587-19.548h1.047l6.035 15.41zm26.633-5.275c0 3.011-.65 5.396-1.95 7.155-1.302 1.758-3.096 2.637-5.385 2.637-1.517 0-2.839-.3-3.965-.903-1.126-.602-2.015-1.421-2.665-2.457v10.497h-.975V31.652a1.27 1.27 0 01-.028-.09.297.297 0 01-.009-.072v-7.977c0-.006.012-.045.037-.117v-5.944h.758l.199 3.45a7.353 7.353 0 012.656-2.79c1.12-.68 2.439-1.021 3.956-1.021 2.3 0 4.104.912 5.411 2.737 1.307 1.825 1.96 4.285 1.96 7.38v.38zm-.993-.379c0-2.71-.545-4.911-1.635-6.603-1.09-1.692-2.665-2.539-4.725-2.539-1.854 0-3.303.464-4.345 1.392-1.041.927-1.797 2.071-2.267 3.432v9.34a6.33 6.33 0 002.421 3.045c1.12.752 2.53 1.129 4.228 1.129 2.06 0 3.628-.795 4.706-2.385 1.078-1.59 1.617-3.734 1.617-6.432v-.379zm13.698-9.051l-1.265-.109c-1.746 0-3.164.563-4.254 1.69-1.09 1.126-1.798 2.61-2.123 4.453V37h-.976V17.452h.795l.18 3.397v.668c.543-1.397 1.35-2.484 2.422-3.26 1.072-.778 2.39-1.166 3.956-1.166.277 0 .533.02.768.063.235.042.437.087.605.136l-.108.867zM16 0h1v48h-1z" fill="#FFF"/><circle fill="#C01844" cx="4" cy="24" r="4"/></g></svg>