<?xml version="1.0" encoding="UTF-8"?>
<svg width="150px" height="48px" viewBox="0 0 150 48" version="1.1" xmlns="http://www.w3.org/2000/svg" xmlns:xlink="http://www.w3.org/1999/xlink">
    <!-- Generator: Sketch 50 (54983) - http://www.bohemiancoding.com/sketch -->
    <title>Group</title>
    <desc>Created with Sketch.</desc>
    <defs></defs>
    <g id="Page-1" stroke="none" stroke-width="1" fill="none" fill-rule="evenodd">
        <g id="Chris-Logo" transform="translate(-42.000000, -20.000000)">
            <g id="Group" transform="translate(42.000000, 20.000000)">
                <circle id="Red-dot-sm" fill="#C01844" cx="82" cy="11" r="2"></circle>
                <path d="M46.6061077,28.9423828 L46.6422405,29.0507812 C46.6904178,31.7487114 45.8744267,33.8112722 44.1942425,35.2385254 C42.5140583,36.6657786 40.3009457,37.3793945 37.5548382,37.3793945 C34.6762431,37.3793945 32.3697883,36.3164983 30.6354046,34.1906738 C28.9010209,32.0648494 28.0338421,29.2736175 28.0338421,25.8168945 L28.0338421,21.878418 C28.0338421,18.4337393 28.9010209,15.6455185 30.6354046,13.5136719 C32.3697883,11.3818253 34.6762431,10.315918 37.5548382,10.315918 C40.3009457,10.315918 42.5140583,11.0325449 44.1942425,12.4658203 C45.8744267,13.8990957 46.6904178,15.9466013 46.6422405,18.6083984 L46.6061077,18.7167969 L45.775053,18.7167969 C45.775053,16.3440637 45.0373488,14.5133528 43.5619183,13.2246094 C42.0864877,11.935866 40.0841477,11.2915039 37.5548382,11.2915039 C34.9893957,11.2915039 32.9238239,12.261058 31.3580608,14.2001953 C29.7922978,16.1393326 29.009428,18.6866704 29.009428,21.8422852 L29.009428,25.8168945 C29.009428,29.0086423 29.7922978,31.5710353 31.3580608,33.5041504 C32.9238239,35.4372655 34.9893957,36.4038086 37.5548382,36.4038086 C40.0841477,36.4038086 42.0864877,35.7835348 43.5619183,34.5429688 C45.0373488,33.3024027 45.775053,31.4355593 45.775053,28.9423828 L46.6061077,28.9423828 Z M52.2647614,21.5170898 C52.8790223,20.1199474 53.7702895,19.0329629 54.9385896,18.2561035 C56.1068897,17.4792442 57.5280994,17.0908203 59.2022614,17.0908203 C61.2377534,17.0908203 62.7824157,17.7351824 63.8362947,19.0239258 C64.8901736,20.3126692 65.4171052,22.3421085 65.4171052,25.1123047 L65.4171052,37 L64.4234529,37 L64.4234529,25.0761719 C64.4234529,22.5107294 63.95072,20.7010958 63.00524,19.6472168 C62.05976,18.5933378 60.7981352,18.0664062 59.2203279,18.0664062 C57.1487029,18.0664062 55.5498419,18.6746358 54.423697,19.8911133 C53.297552,21.1075907 52.5779141,22.6673082 52.2647614,24.5703125 L52.2647614,37 L51.2891755,37 L51.2891755,26.9912109 L51.2530427,26.9912109 L51.2530427,26.3588867 C51.2530427,26.1902661 51.2650868,26.021648 51.2891755,25.8530273 L51.2891755,8.81640625 L52.2647614,8.81640625 L52.2647614,21.5170898 Z M78.9346457,18.1567383 L77.6699972,18.0483398 C75.9235692,18.0483398 74.5053705,18.6114039 73.4153585,19.7375488 C72.3253466,20.8636938 71.6177527,22.3481353 71.2925558,24.190918 L71.2925558,37 L70.3169699,37 L70.3169699,17.4521484 L71.1118917,17.4521484 L71.2925558,20.8486328 L71.2925558,21.5170898 C71.8345507,20.1199474 72.6415088,19.0329629 73.7134542,18.2561035 C74.7853997,17.4792442 76.1042342,17.0908203 77.6699972,17.0908203 C77.9470168,17.0908203 78.202955,17.1118976 78.4378195,17.1540527 C78.6726839,17.1962079 78.8744235,17.2413735 79.0430441,17.2895508 L78.9346457,18.1567383 Z M82.6782603,37 L81.7026744,37 L81.7026744,17.4521484 L82.6782603,17.4521484 L82.6782603,37 Z M99.8452148,32.2124023 C99.8452148,31.1765899 99.4025923,30.2341351 98.517334,29.3850098 C97.6320757,28.5358844 96.0874134,27.8704451 93.8833008,27.3886719 C91.5587449,26.8948543 89.8755749,26.2595254 88.8337402,25.482666 C87.7919056,24.7058067 87.2709961,23.5525793 87.2709961,22.0229492 C87.2709961,20.6258068 87.8611595,19.4545132 89.0415039,18.5090332 C90.2218483,17.5635532 91.8116762,17.0908203 93.8110352,17.0908203 C95.9669704,17.0908203 97.6651956,17.5966746 98.9057617,18.6083984 C100.146328,19.6201222 100.736491,20.9389567 100.67627,22.5649414 L100.640137,22.6733398 L99.809082,22.6733398 C99.809082,21.3966408 99.2701063,20.3096562 98.1921387,19.4123535 C97.114171,18.5150509 95.6538178,18.0664062 93.8110352,18.0664062 C91.9802968,18.0664062 90.5952195,18.4608522 89.6557617,19.2497559 C88.7163039,20.0386595 88.246582,20.9510039 88.246582,21.9868164 C88.246582,23.0105845 88.644039,23.8837854 89.4389648,24.6064453 C90.2338907,25.3291052 91.8116744,25.9614231 94.1723633,26.503418 C96.3523872,27.0092799 98.0054468,27.6988075 99.1315918,28.5720215 C100.257737,29.4452355 100.820801,30.6647057 100.820801,32.2304688 C100.820801,33.7600988 100.194505,35.0006463 98.9418945,35.9521484 C97.6892841,36.9036506 96.0271913,37.3793945 93.9555664,37.3793945 C91.6791878,37.3793945 89.8936425,36.8705292 88.598877,35.8527832 C87.3041114,34.8350372 86.6988928,33.5975008 86.7832031,32.1401367 L86.8193359,32.0317383 L87.6142578,32.0317383 C87.7106125,33.5734127 88.3730407,34.6874966 89.6015625,35.3740234 C90.8300843,36.0605503 92.2814044,36.4038086 93.9555664,36.4038086 C95.7622161,36.4038086 97.19547,35.9822633 98.2553711,35.1391602 C99.3152722,34.296057 99.8452148,33.3204808 99.8452148,32.2124023 Z M109.803673,32.862793 L110.72506,35.5004883 L110.833458,35.5004883 L111.772912,32.862793 L117.789025,17.4521484 L118.836876,17.4521484 L111.230919,36.9819336 L111.248986,37 L110.309533,37 L102.721642,17.4521484 L103.769494,17.4521484 L109.803673,32.862793 Z M136.437425,27.5874023 C136.437425,30.5984851 135.787041,32.9832269 134.486253,34.7416992 C133.185465,36.5001716 131.390887,37.3793945 129.102464,37.3793945 C127.584878,37.3793945 126.263033,37.0782908 125.136888,36.4760742 C124.010743,35.8738577 123.122487,35.0548554 122.472093,34.019043 L122.472093,44.515625 L121.496507,44.515625 L121.496507,31.6523438 C121.484462,31.6162108 121.475429,31.5861004 121.469407,31.5620117 C121.463385,31.5379231 121.460374,31.5138348 121.460374,31.4897461 L121.460374,23.5134277 C121.460374,23.5074056 121.472418,23.4682621 121.496507,23.3959961 L121.496507,17.4521484 L122.255296,17.4521484 L122.454026,20.902832 C123.10442,19.7224876 123.989665,18.792077 125.109788,18.1115723 C126.229911,17.4310676 127.548745,17.0908203 129.066331,17.0908203 C131.366798,17.0908203 133.17041,18.0031647 134.47722,19.8278809 C135.78403,21.652597 136.437425,24.1126147 136.437425,27.2080078 L136.437425,27.5874023 Z M135.443772,27.2080078 C135.443772,24.4980333 134.898775,22.2969648 133.808763,20.6047363 C132.718751,18.9125078 131.143978,18.0664062 129.084397,18.0664062 C127.22957,18.0664062 125.781261,18.530106 124.739427,19.4575195 C123.697592,20.384933 122.941822,21.5291273 122.472093,22.8901367 L122.472093,32.2304688 C122.96591,33.5071678 123.772868,34.5218875 124.892991,35.2746582 C126.013114,36.0274289 127.422279,36.4038086 129.12053,36.4038086 C131.180111,36.4038086 132.748861,35.6088947 133.826829,34.019043 C134.904797,32.4291913 135.443772,30.2853325 135.443772,27.5874023 L135.443772,27.2080078 Z M149.141977,18.1567383 L147.877328,18.0483398 C146.1309,18.0483398 144.712702,18.6114039 143.62269,19.7375488 C142.532678,20.8636938 141.825084,22.3481353 141.499887,24.190918 L141.499887,37 L140.524301,37 L140.524301,17.4521484 L141.319223,17.4521484 L141.499887,20.8486328 L141.499887,21.5170898 C142.041882,20.1199474 142.84884,19.0329629 143.920785,18.2561035 C144.992731,17.4792442 146.311565,17.0908203 147.877328,17.0908203 C148.154348,17.0908203 148.410286,17.1118976 148.645151,17.1540527 C148.880015,17.1962079 149.081755,17.2413735 149.250375,17.2895508 L149.141977,18.1567383 Z" id="Name" fill="#FFFFFF"></path>
                <rect id="Line" fill="#FFFFFF" x="16" y="0" width="1" height="48"></rect>
                <circle id="Red-Dot" fill="#C01844" cx="4" cy="24" r="4"></circle>
            </g>
        </g>
    </g>
</svg>