<?xml version="1.0" standalone="no"?>
<!DOCTYPE svg PUBLIC "-//W3C//DTD SVG 20010904//EN"
 "http://www.w3.org/TR/2001/REC-SVG-20010904/DTD/svg10.dtd">
<svg version="1.0" xmlns="http://www.w3.org/2000/svg"
 width="700.000000pt" height="700.000000pt" viewBox="0 0 700.000000 700.000000"
 preserveAspectRatio="xMidYMid meet">
<metadata>
Created by potrace 1.11, written by Peter Selinger 2001-2013
</metadata>
<g transform="translate(0.000000,700.000000) scale(0.100000,-0.100000)"
fill="#000000" stroke="none">
<path d="M3208 6995 c-2 -2 -44 -6 -95 -9 -51 -3 -103 -8 -115 -11 -13 -2 -41
-7 -63 -9 -78 -9 -128 -19 -370 -71 -11 -3 -51 -14 -90 -25 -38 -12 -77 -23
-85 -25 -8 -2 -49 -15 -90 -30 -848 -295 -1541 -904 -1941 -1705 -192 -386
-307 -791 -347 -1230 -9 -97 -8 -506 1 -590 14 -126 28 -235 32 -250 5 -17 14
-71 20 -115 9 -61 65 -274 105 -394 69 -208 173 -445 266 -607 43 -74 157
-258 164 -264 4 -3 21 -27 40 -55 29 -43 96 -129 175 -224 72 -87 223 -241
331 -337 443 -396 1039 -692 1604 -797 84 -16 151 -27 195 -33 27 -3 61 -8 75
-10 183 -23 612 -23 775 1 17 2 49 6 73 9 69 9 249 41 280 50 9 3 29 7 44 10
38 6 236 63 315 90 1006 345 1801 1145 2133 2146 57 171 117 411 134 535 3 22
10 72 15 110 30 208 33 689 6 819 -2 12 -7 48 -10 81 -4 33 -18 116 -31 185
-104 522 -306 977 -623 1400 -47 63 -92 122 -101 131 -8 8 -45 49 -81 90 -130
146 -304 310 -429 405 -36 27 -67 52 -70 55 -3 3 -48 35 -100 71 -347 239
-725 410 -1120 507 -141 34 -323 67 -420 76 -36 4 -76 9 -90 11 -28 6 -507 14
-512 9z"/>
</g>
</svg>
